<svg xmlns="http://www.w3.org/2000/svg" xmlns:xlink="http://www.w3.org/1999/xlink" width="100" zoomAndPan="magnify" viewBox="0 0 75 74.999997" height="100" preserveAspectRatio="xMidYMid meet" version="1.0"><defs><g/><clipPath id="b97a76c6f2"><path d="M 5.738281 5.738281 L 69.488281 5.738281 L 69.488281 69.488281 L 5.738281 69.488281 Z M 5.738281 5.738281 " clip-rule="nonzero"/></clipPath></defs><g clip-path="url(#b97a76c6f2)"><path fill="#eab308" d="M 59.8125 69.253906 L 15.179688 69.253906 C 9.972656 69.253906 5.738281 65.019531 5.738281 59.8125 L 5.738281 15.179688 C 5.738281 9.972656 9.972656 5.738281 15.179688 5.738281 L 59.8125 5.738281 C 65.019531 5.738281 69.253906 9.972656 69.253906 15.179688 L 69.253906 59.8125 C 69.253906 65.019531 65.019531 69.253906 59.8125 69.253906 Z M 15.179688 9.171875 C 11.867188 9.171875 9.171875 11.867188 9.171875 15.179688 L 9.171875 59.8125 C 9.171875 63.125 11.867188 65.820312 15.179688 65.820312 L 59.8125 65.820312 C 63.125 65.820312 65.820312 63.125 65.820312 59.8125 L 65.820312 15.179688 C 65.820312 11.867188 63.125 9.171875 59.8125 9.171875 Z M 15.179688 9.171875 " fill-opacity="1" fill-rule="nonzero"/></g><path fill="#eab308" d="M 37.496094 55.519531 C 27.558594 55.519531 19.472656 47.433594 19.472656 37.496094 C 19.472656 27.558594 27.558594 19.472656 37.496094 19.472656 C 47.433594 19.472656 55.519531 27.558594 55.519531 37.496094 C 55.519531 47.433594 47.433594 55.519531 37.496094 55.519531 Z M 37.496094 22.902344 C 29.449219 22.902344 22.902344 29.449219 22.902344 37.496094 C 22.902344 45.542969 29.449219 52.085938 37.496094 52.085938 C 45.542969 52.085938 52.085938 45.542969 52.085938 37.496094 C 52.085938 29.449219 45.542969 22.902344 37.496094 22.902344 Z M 37.496094 22.902344 " fill-opacity="1" fill-rule="nonzero"/><path fill="#eab308" d="M 56.378906 24.621094 C 53.066406 24.621094 50.371094 21.925781 50.371094 18.613281 C 50.371094 15.300781 53.066406 12.605469 56.378906 12.605469 C 59.691406 12.605469 62.386719 15.300781 62.386719 18.613281 C 62.386719 21.925781 59.691406 24.621094 56.378906 24.621094 Z M 56.378906 16.039062 C 54.957031 16.039062 53.804688 17.191406 53.804688 18.613281 C 53.804688 20.03125 54.957031 21.1875 56.378906 21.1875 C 57.796875 21.1875 58.953125 20.03125 58.953125 18.613281 C 58.953125 17.191406 57.796875 16.039062 56.378906 16.039062 Z M 56.378906 16.039062 " fill-opacity="1" fill-rule="nonzero"/><g fill="#eab308" fill-opacity="1"><g transform="translate(7.500001, 14.70002)"><g><path d="M 3.265625 -5.71875 L 1.140625 0 L 0.0625 0 L 2.1875 -5.71875 Z M 3.265625 -5.71875 "/></g></g></g></svg>